<?xml version="1.0" encoding="UTF-8" standalone="no"?>
<svg width="17px" height="16px" viewBox="0 0 17 16" version="1.1" xmlns="http://www.w3.org/2000/svg" xmlns:xlink="http://www.w3.org/1999/xlink">
    <!-- Generator: Sketch 50.2 (55047) - http://www.bohemiancoding.com/sketch -->
    <title>search icon</title>
    <desc>Created with Sketch.</desc>
    <defs></defs>
    <g id="Design" stroke="none" stroke-width="1" fill="none" fill-rule="evenodd">
        <g id="1.1-Ticket-CCTV-off" transform="translate(-1234.000000, -78.000000)" fill="#0186d5" fill-rule="nonzero">
            <g id="search" transform="translate(1036.000000, 67.000000)">
                <path d="M208.923566,21.0628931 L208.66237,20.8158948 C209.576554,19.7730132 210.12693,18.4190966 210.12693,16.946255 C210.12693,13.6620926 207.412363,11 204.063465,11 C200.714567,11 198,13.6620926 198,16.946255 C198,20.2304174 200.714567,22.89251 204.063465,22.89251 C205.565339,22.89251 206.945943,22.352773 208.009382,21.4562607 L208.261249,21.7124071 L208.261249,22.4351058 L212.925452,27 L214.315385,25.6369354 L209.66051,21.0628931 L208.923566,21.0628931 Z M204.063465,21.0628931 C201.740692,21.0628931 199.865682,19.2241281 199.865682,16.946255 C199.865682,14.6683819 201.740692,12.8296169 204.063465,12.8296169 C206.386239,12.8296169 208.261249,14.6683819 208.261249,16.946255 C208.261249,19.2241281 206.386239,21.0628931 204.063465,21.0628931 Z" id="search-icon"></path>
            </g>
        </g>
    </g>
</svg>